<svg xmlns="http://www.w3.org/2000/svg" xmlns:xlink="http://www.w3.org/1999/xlink" width="397" zoomAndPan="magnify" viewBox="0 0 297.75 419.249985" height="559" preserveAspectRatio="xMidYMid meet" version="1.0"><defs><clipPath id="id1"><path d="M 0.140625 0 L 297.359375 0 L 297.359375 418.5 L 0.140625 418.5 Z M 0.140625 0 " clip-rule="nonzero"/></clipPath></defs><g clip-path="url(#id1)"><path fill="rgb(100%, 100%, 100%)" d="M 0.140625 0 L 297.609375 0 L 297.609375 427.09375 L 0.140625 427.09375 Z M 0.140625 0 " fill-opacity="1" fill-rule="nonzero"/><path fill="rgb(100%, 100%, 100%)" d="M 0.140625 0 L 297.609375 0 L 297.609375 418.851562 L 0.140625 418.851562 Z M 0.140625 0 " fill-opacity="1" fill-rule="nonzero"/><path fill="rgb(100%, 100%, 100%)" d="M 0.140625 0 L 297.609375 0 L 297.609375 418.851562 L 0.140625 418.851562 Z M 0.140625 0 " fill-opacity="1" fill-rule="nonzero"/><path fill="rgb(100%, 100%, 100%)" d="M 0.140625 0 L 297.609375 0 L 297.609375 418.851562 L 0.140625 418.851562 Z M 0.140625 0 " fill-opacity="1" fill-rule="nonzero"/></g><path fill="rgb(0%, 0%, 0.389099%)" d="M 200.953125 17.546875 C 200.953125 17.648438 201.515625 18.972656 202.175781 20.449219 C 207.625 32.875 203.804688 47.390625 191.734375 60.328125 C 186.898438 65.519531 182.007812 69.492188 171.671875 76.675781 C 135.714844 101.679688 123.136719 111.507812 109.234375 125.3125 C 96.804688 137.6875 90.847656 145.53125 85.601562 156.480469 C 81.832031 164.269531 80.253906 170.28125 79.898438 178.125 C 79.285156 190.5 82.394531 200.890625 90.234375 212.652344 C 93.242188 217.136719 98.589844 223.753906 98.945312 223.449219 C 99.046875 223.296875 98.332031 221.871094 97.316406 220.292969 C 87.996094 205.726562 87.792969 186.019531 96.753906 168.140625 C 105.054688 151.691406 116.3125 140.132812 154.609375 108.757812 C 161.738281 102.902344 170.144531 95.976562 173.199219 93.328125 C 180.886719 86.808594 192.550781 75.199219 196.421875 70.308594 C 208.390625 55.234375 211.597656 41.738281 206.554688 27.9375 C 204.773438 23.097656 200.953125 15.96875 200.953125 17.546875 Z M 200.953125 17.546875 " fill-opacity="1" fill-rule="nonzero"/><path fill="rgb(0%, 0%, 0.389099%)" d="M 208.390625 56.8125 C 208.1875 57.628906 207.777344 59.359375 207.523438 60.582031 C 206.351562 65.675781 200.75 75.351562 194.84375 82.53125 C 187.457031 91.445312 174.269531 103.71875 161.738281 113.34375 C 148.90625 123.222656 136.171875 135.089844 127.515625 145.171875 C 114.988281 159.890625 106.074219 176.238281 102.867188 190.550781 C 101.59375 196.152344 101.695312 206.898438 103.070312 211.941406 C 105.261719 219.988281 110.710938 228.492188 117.226562 234.042969 C 120.945312 237.199219 126.546875 241.121094 126.90625 240.816406 C 127.007812 240.664062 126.039062 239.238281 124.765625 237.558594 C 115.75 225.945312 113.816406 209.496094 119.46875 192.433594 C 123.1875 181.382812 132.558594 166.003906 144.882812 151.03125 C 150.433594 144.308594 157.613281 136.515625 172.789062 120.828125 C 192.753906 100.152344 198.917969 92.613281 204.011719 82.53125 C 207.066406 76.472656 208.441406 71.988281 209.101562 66.03125 C 209.714844 60.988281 209.101562 53.757812 208.390625 56.8125 Z M 208.390625 56.8125 " fill-opacity="1" fill-rule="nonzero"/><path fill="rgb(0%, 0%, 0.389099%)" d="M 155.933594 171.25 C 156.1875 171.605469 157.207031 173.03125 158.277344 174.40625 C 163.472656 180.976562 166.425781 190.449219 166.425781 200.429688 C 166.375 213.621094 161.789062 226.453125 151.554688 241.9375 C 141.519531 257.0625 135.207031 264.5 110.609375 290.0625 C 89.929688 311.503906 83.871094 318.941406 78.929688 328.617188 C 75.925781 334.574219 74.296875 339.566406 73.632812 344.914062 C 73.175781 348.835938 73.378906 356.421875 73.988281 355.8125 C 74.09375 355.710938 74.5 354.132812 74.90625 352.347656 C 76.179688 346.238281 81.375 336.917969 87.894531 329.023438 C 95.277344 320.113281 108.46875 307.839844 120.996094 298.210938 C 133.832031 288.332031 146.5625 276.464844 155.222656 266.382812 C 167.75 251.714844 176.660156 235.265625 179.871094 221.003906 C 181.144531 215.402344 181.042969 204.65625 179.667969 199.617188 C 176.867188 189.125 169.785156 179.855469 159.191406 172.675781 C 156.035156 170.535156 155.324219 170.230469 155.933594 171.25 Z M 155.933594 171.25 " fill-opacity="1" fill-rule="nonzero"/><path fill="rgb(0%, 0%, 0.389099%)" d="M 183.640625 188.15625 C 183.640625 188.308594 184.453125 189.734375 185.472656 191.3125 C 194.742188 205.828125 194.945312 225.539062 185.980469 243.414062 C 177.679688 259.863281 166.425781 271.425781 128.125 302.796875 C 120.996094 308.652344 112.644531 315.578125 109.539062 318.226562 C 101.847656 324.746094 90.183594 336.359375 86.316406 341.246094 C 74.347656 356.320312 71.136719 369.816406 76.179688 383.621094 C 77.65625 387.695312 81.171875 394.46875 81.578125 394.058594 C 81.679688 393.957031 81.273438 392.632812 80.558594 391.105469 C 77.199219 383.363281 77.402344 373.839844 81.273438 365.386719 C 85.753906 355.507812 94.003906 346.746094 108.265625 336.816406 C 129.910156 321.742188 135.867188 317.464844 142.894531 312.21875 C 156.289062 302.132812 164.695312 295.003906 173.503906 286.246094 C 185.929688 273.867188 191.890625 266.027344 197.132812 255.078125 C 200.902344 247.285156 202.480469 241.273438 202.839844 233.433594 C 203.449219 221.15625 200.292969 210.617188 192.652344 199.15625 C 189.039062 193.65625 183.640625 187.136719 183.640625 188.15625 Z M 183.640625 188.15625 " fill-opacity="1" fill-rule="nonzero"/></svg>